{
  "accessors": [
    {
      "bufferView": 2,
      "componentType": 5126,
      "count": 4645,
      "max": [
        0.15593819320201874,
        0.4954397976398468,
        0.2312137633562088
      ],
      "min": [
        -0.1881517767906189,
        -0.46612018346786499,
        -0.41373628377914429
      ],
      "type": "VEC3"
    },
    {
      "bufferView": 2,
      "byteOffset": 55740,
      "componentType": 5126,
      "count": 4645,
      "max": [
        1,
        0.99730271100997925,
        1
      ],
      "min": [
        -1,
        -0.99730193614959717,
        -1
      ],
      "type": "VEC3"
    },
    {
      "bufferView": 1,
      "componentType": 5126,
      "count": 4645,
      "max": [
        1,
        1.0019500255584717
      ],
      "min": [
        0,
        -0.0010706186294555664
      ],
      "type": "VEC2"
    },
    {
      "bufferView": 0,
      "componentType": 5125,
      "count": 8106,
      "max": [
        4644
      ],
      "min": [
        0
      ],
      "type": "SCALAR"
    },
    {
      "bufferView": 2,
      "byteOffset": 111480,
      "componentType": 5126,
      "count": 3142,
      "max": [
        0.17427688837051392,
        0.2211698591709137,
        0.24031378328800201
      ],
      "min": [
        -0.20255178213119507,
        -0.21402016282081604,
        0.16334772109985352
      ],
      "type": "VEC3"
    },
    {
      "bufferView": 2,
      "byteOffset": 149184,
      "componentType": 5126,
      "count": 3142,
      "max": [
        1,
        1,
        1
      ],
      "min": [
        -0.9999079704284668,
        -1,
        -1
      ],
      "type": "VEC3"
    },
    {
      "bufferView": 1,
      "byteOffset": 37160,
      "componentType": 5126,
      "count": 3142,
      "max": [
        1,
        1.0070853233337402
      ],
      "min": [
        0,
        -0.0092091560363769531
      ],
      "type": "VEC2"
    },
    {
      "bufferView": 0,
      "byteOffset": 32424,
      "componentType": 5125,
      "count": 6576,
      "max": [
        3141
      ],
      "min": [
        0
      ],
      "type": "SCALAR"
    },
    {
      "bufferView": 2,
      "byteOffset": 186888,
      "componentType": 5126,
      "count": 863,
      "max": [
        0.15413898229598999,
        0.20605984330177307,
        0.24935758113861084
      ],
      "min": [
        -0.18751257658004761,
        -0.1896701455116272,
        0.24031360447406769
      ],
      "type": "VEC3"
    },
    {
      "bufferView": 2,
      "byteOffset": 197244,
      "componentType": 5126,
      "count": 863,
      "max": [
        0.58944994211196899,
        0.55895239114761353,
        1
      ],
      "min": [
        -0.54902809858322144,
        -0.51955568790435791,
        0.73401814699172974
      ],
      "type": "VEC3"
    },
    {
      "bufferView": 1,
      "byteOffset": 62296,
      "componentType": 5126,
      "count": 863,
      "max": [
        1,
        1.000019907951355
      ],
      "min": [
        0,
        -0.00037050247192382812
      ],
      "type": "VEC2"
    },
    {
      "bufferView": 0,
      "byteOffset": 58728,
      "componentType": 5125,
      "count": 1161,
      "max": [
        862
      ],
      "min": [
        0
      ],
      "type": "SCALAR"
    },
    {
      "bufferView": 2,
      "byteOffset": 207600,
      "componentType": 5126,
      "count": 282,
      "max": [
        0.17417821288108826,
        0.12045985460281372,
        0.24910156428813934
      ],
      "min": [
        -0.15225180983543396,
        -0.19891026616096497,
        0.15206214785575867
      ],
      "type": "VEC3"
    },
    {
      "bufferView": 2,
      "byteOffset": 210984,
      "componentType": 5126,
      "count": 282,
      "max": [
        1,
        0.43425607681274414,
        0.99051189422607422
      ],
      "min": [
        -0.43105193972587585,
        -0.55823338031768799,
        -0.99971562623977661
      ],
      "type": "VEC3"
    },
    {
      "bufferView": 1,
      "byteOffset": 69200,
      "componentType": 5126,
      "count": 282,
      "max": [
        1,
        1
      ],
      "min": [
        -0.00018715858459472656,
        -0.00018715858459472656
      ],
      "type": "VEC2"
    },
    {
      "bufferView": 0,
      "byteOffset": 63372,
      "componentType": 5125,
      "count": 510,
      "max": [
        281
      ],
      "min": [
        0
      ],
      "type": "SCALAR"
    },
    {
      "bufferView": 2,
      "byteOffset": 214368,
      "componentType": 5126,
      "count": 4,
      "max": [
        0.11043820530176163,
        0.1609998494386673,
        0.24922379851341248
      ],
      "min": [
        -0.14155179262161255,
        -0.15619014203548431,
        0.2492237389087677
      ],
      "type": "VEC3"
    },
    {
      "bufferView": 2,
      "byteOffset": 214416,
      "componentType": 5126,
      "count": 4,
      "max": [
        0,
        -1.8791465095091553e-07,
        1
      ],
      "min": [
        -0.00029062159592285752,
        -0.00016795359260868281,
        0.99999994039535522
      ],
      "type": "VEC3"
    },
    {
      "bufferView": 1,
      "byteOffset": 71456,
      "componentType": 5126,
      "count": 4,
      "max": [
        1,
        1
      ],
      "min": [
        0,
        0
      ],
      "type": "VEC2"
    },
    {
      "bufferView": 0,
      "byteOffset": 65412,
      "componentType": 5125,
      "count": 6,
      "max": [
        3
      ],
      "min": [
        0
      ],
      "type": "SCALAR"
    },
    {
      "bufferView": 2,
      "byteOffset": 214464,
      "componentType": 5126,
      "count": 24,
      "max": [
        0.021478218957781792,
        0.039079908281564713,
        -0.21856626868247986
      ],
      "min": [
        -0.050281789153814316,
        -0.014850087463855743,
        -0.2654462456703186
      ],
      "type": "VEC3"
    },
    {
      "bufferView": 2,
      "byteOffset": 214752,
      "componentType": 5126,
      "count": 24,
      "max": [
        0.000964031380135566,
        0.6570812463760376,
        0.75921422243118286
      ],
      "min": [
        -0.0021262308582663536,
        0.65083736181259155,
        0.75381976366043091
      ],
      "type": "VEC3"
    },
    {
      "bufferView": 1,
      "byteOffset": 71488,
      "componentType": 5126,
      "count": 24,
      "max": [
        1,
        1
      ],
      "min": [
        1,
        0
      ],
      "type": "VEC2"
    },
    {
      "bufferView": 0,
      "byteOffset": 65436,
      "componentType": 5125,
      "count": 66,
      "max": [
        23
      ],
      "min": [
        0
      ],
      "type": "SCALAR"
    },
    {
      "bufferView": 2,
      "byteOffset": 215040,
      "componentType": 5126,
      "count": 480,
      "max": [
        0.10829821974039078,
        0.1598198264837265,
        0.24945114552974701
      ],
      "min": [
        -0.13978180289268494,
        -0.14530016481876373,
        0.24945105612277985
      ],
      "type": "VEC3"
    },
    {
      "bufferView": 2,
      "byteOffset": 220800,
      "componentType": 5126,
      "count": 480,
      "max": [
        7.1167471560329432e-07,
        0,
        1
      ],
      "min": [
        -1.2566558780235937e-06,
        -4.1125608163383731e-07,
        1
      ],
      "type": "VEC3"
    },
    {
      "bufferView": 1,
      "byteOffset": 71680,
      "componentType": 5126,
      "count": 480,
      "max": [
        -0.49343889951705933,
        -0.30761799216270447
      ],
      "min": [
        -0.70827299356460571,
        -0.70429098606109619
      ],
      "type": "VEC2"
    },
    {
      "bufferView": 0,
      "byteOffset": 65700,
      "componentType": 5125,
      "count": 1320,
      "max": [
        479
      ],
      "min": [
        0
      ],
      "type": "SCALAR"
    }
  ],
  "asset": {
    "extras": {
      "author": "OneSteven (https://sketchfab.com/Steven007)",
      "license": "CC-BY-NC-SA-4.0 (http://creativecommons.org/licenses/by-nc-sa/4.0/)",
      "source": "https://sketchfab.com/3d-models/apple-watch-4bf804c0b2ed44bd92da4ae23be0753c",
      "title": "Apple Watch"
    },
    "generator": "Sketchfab-8.33.0",
    "version": "2.0"
  },
  "bufferViews": [
    {
      "buffer": 0,
      "byteLength": 70980,
      "byteOffset": 0,
      "name": "floatBufferViews",
      "target": 34963
    },
    {
      "buffer": 0,
      "byteLength": 75520,
      "byteOffset": 70980,
      "byteStride": 8,
      "name": "floatBufferViews",
      "target": 34962
    },
    {
      "buffer": 0,
      "byteLength": 226560,
      "byteOffset": 146500,
      "byteStride": 12,
      "name": "floatBufferViews",
      "target": 34962
    }
  ],
  "buffers": [
    {
      "byteLength": 373060,
      "uri": "scene.bin"
    }
  ],
  "images": [
    {
      "uri": "textures/material_baseColor.jpeg"
    }
  ],
  "materials": [
    {
      "doubleSided": false,
      "emissiveFactor": [
        0,
        0,
        0
      ],
      "name": "band",
      "pbrMetallicRoughness": {
        "baseColorFactor": [
          0.025165096170800066,
          0.025165096170800066,
          0.025165096170800066,
          1
        ],
        "metallicFactor": 1,
        "roughnessFactor": 0.6394735002097609
      }
    },
    {
      "doubleSided": true,
      "emissiveFactor": [
        0,
        0,
        0
      ],
      "name": "wmettle",
      "pbrMetallicRoughness": {
        "baseColorFactor": [
          0.65513779080330381,
          0.65513779080330381,
          0.65513779080330381,
          1
        ],
        "metallicFactor": 1,
        "roughnessFactor": 0.47531281730132002
      }
    },
    {
      "doubleSided": true,
      "emissiveFactor": [
        0,
        0,
        0
      ],
      "name": "glck",
      "pbrMetallicRoughness": {
        "baseColorFactor": [
          0,
          0,
          0,
          1
        ],
        "metallicFactor": 0,
        "roughnessFactor": 0
      }
    },
    {
      "doubleSided": true,
      "emissiveFactor": [
        0,
        0,
        0
      ],
      "name": "grey",
      "pbrMetallicRoughness": {
        "baseColorFactor": [
          0.094117999999999993,
          0.094117999999999993,
          0.094117999999999993,
          1
        ],
        "metallicFactor": 1,
        "roughnessFactor": 0.35979233673612088
      }
    },
    {
      "doubleSided": true,
      "emissiveFactor": [
        0,
        0,
        0
      ],
      "name": "blastic",
      "pbrMetallicRoughness": {
        "baseColorFactor": [
          0,
          0,
          0,
          1
        ],
        "metallicFactor": 0,
        "roughnessFactor": 0
      }
    },
    {
      "doubleSided": true,
      "emissiveFactor": [
        0,
        0,
        0
      ],
      "name": "aniostropic_met",
      "pbrMetallicRoughness": {
        "baseColorFactor": [
          1,
          1,
          1,
          1
        ],
        "metallicFactor": 1,
        "roughnessFactor": 0.33547223556450001
      }
    },
    {
      "doubleSided": true,
      "emissiveFactor": [
        0,
        0,
        0
      ],
      "name": "material",
      "pbrMetallicRoughness": {
        "baseColorFactor": [
          1,
          1,
          1,
          1
        ],
        "baseColorTexture": {
          "index": 0,
          "texCoord": 0
        },
        "metallicFactor": 0,
        "roughnessFactor": 0
      }
    }
  ],
  "meshes": [
    {
      "name": "Apple Watch.001_band_0",
      "primitives": [
        {
          "attributes": {
            "NORMAL": 1,
            "POSITION": 0,
            "TEXCOORD_0": 2
          },
          "indices": 3,
          "material": 0,
          "mode": 4
        }
      ]
    },
    {
      "name": "Apple Watch.001_wmettle_0",
      "primitives": [
        {
          "attributes": {
            "NORMAL": 5,
            "POSITION": 4,
            "TEXCOORD_0": 6
          },
          "indices": 7,
          "material": 1,
          "mode": 4
        }
      ]
    },
    {
      "name": "Apple Watch.001_glck_0",
      "primitives": [
        {
          "attributes": {
            "NORMAL": 9,
            "POSITION": 8,
            "TEXCOORD_0": 10
          },
          "indices": 11,
          "material": 2,
          "mode": 4
        }
      ]
    },
    {
      "name": "Apple Watch.001_grey_0",
      "primitives": [
        {
          "attributes": {
            "NORMAL": 13,
            "POSITION": 12,
            "TEXCOORD_0": 14
          },
          "indices": 15,
          "material": 3,
          "mode": 4
        }
      ]
    },
    {
      "name": "Apple Watch.001_blastic_0",
      "primitives": [
        {
          "attributes": {
            "NORMAL": 17,
            "POSITION": 16,
            "TEXCOORD_0": 18
          },
          "indices": 19,
          "material": 4,
          "mode": 4
        }
      ]
    },
    {
      "name": "Apple Watch.001_aniostropic met_0",
      "primitives": [
        {
          "attributes": {
            "NORMAL": 21,
            "POSITION": 20,
            "TEXCOORD_0": 22
          },
          "indices": 23,
          "material": 5,
          "mode": 4
        }
      ]
    },
    {
      "name": "Apple Watch.001_icn_0",
      "primitives": [
        {
          "attributes": {
            "NORMAL": 25,
            "POSITION": 24,
            "TEXCOORD_0": 26
          },
          "indices": 27,
          "material": 6,
          "mode": 4
        }
      ]
    }
  ],
  "nodes": [
    {
      "children": [
        1
      ],
      "name": "RootNode (gltf orientation matrix)",
      "rotation": [
        -0.70710678118654746,
        -0,
        -0,
        0.70710678118654757
      ]
    },
    {
      "children": [
        2
      ],
      "name": "RootNode (model correction matrix)"
    },
    {
      "children": [
        3
      ],
      "matrix": [
        1,
        0,
        0,
        0,
        0,
        0,
        1,
        0,
        0,
        -1,
        0,
        0,
        0,
        0,
        0,
        1
      ],
      "name": "Apple Watch.fbx"
    },
    {
      "children": [
        4
      ],
      "name": "RootNode"
    },
    {
      "children": [
        5,
        6,
        7,
        8,
        9,
        10,
        11
      ],
      "matrix": [
        100,
        0,
        0,
        0,
        0,
        -1.6292067939183141e-05,
        -99.999999999998678,
        0,
        0,
        99.999999999998678,
        -1.6292067939183141e-05,
        0,
        0,
        0,
        0,
        1
      ],
      "name": "Apple Watch.001"
    },
    {
      "mesh": 0,
      "name": "Apple Watch.001_band_0"
    },
    {
      "mesh": 1,
      "name": "Apple Watch.001_wmettle_0"
    },
    {
      "mesh": 2,
      "name": "Apple Watch.001_glck_0"
    },
    {
      "mesh": 3,
      "name": "Apple Watch.001_grey_0"
    },
    {
      "mesh": 4,
      "name": "Apple Watch.001_blastic_0"
    },
    {
      "mesh": 5,
      "name": "Apple Watch.001_aniostropic met_0"
    },
    {
      "mesh": 6,
      "name": "Apple Watch.001_icn_0"
    }
  ],
  "samplers": [
    {
      "magFilter": 9729,
      "minFilter": 9987,
      "wrapS": 10497,
      "wrapT": 10497
    }
  ],
  "scene": 0,
  "scenes": [
    {
      "name": "OSG_Scene",
      "nodes": [
        0
      ]
    }
  ],
  "textures": [
    {
      "sampler": 0,
      "source": 0
    }
  ]
}

